Coordinates
version=1
nRows=11
nColumns=63
inDegrees=yes

Units are S.I. units (second, meters, Newtons, ...)
If the header above contains a line with 'inDegrees', this indicates whether rotational values are in degrees (yes) or radians (no).

endheader
time	pelvis_tilt	pelvis_list	pelvis_rotation	pelvis_tx	pelvis_ty	pelvis_tz	hip_flexion_r	hip_adduction_r	hip_rotation_r	knee_angle_r	knee_angle_r_beta	ankle_angle_r	subtalar_angle_r	mtp_angle_r	hip_flexion_l	hip_adduction_l	hip_rotation_l	knee_angle_l	knee_angle_l_beta	ankle_angle_l	subtalar_angle_l	mtp_angle_l	L5_S1_Flex_Ext	L5_S1_Lat_Bending	L5_S1_axial_rotation	L4_L5_Flex_Ext	L4_L5_Lat_Bending	L4_L5_axial_rotation	L3_L4_Flex_Ext	L3_L4_Lat_Bending	L3_L4_axial_rotation	L2_L3_Flex_Ext	L2_L3_Lat_Bending	L2_L3_axial_rotation	L1_L2_Flex_Ext	L1_L2_Lat_Bending	L1_L2_axial_rotation	L1_T12_Flex_Ext	L1_T12_Lat_Bending	L1_T12_axial_rotation	Abs_r3	Abs_r2	Abs_r1	Abs_t1	Abs_t2	neck_flexion	neck_bending	neck_rotation	arm_flex_r	arm_add_r	arm_rot_r	elbow_flex_r	pro_sup_r	wrist_flex_r	wrist_dev_r	arm_flex_l	arm_add_l	arm_rot_l	elbow_flex_l	pro_sup_l	wrist_flex_l	wrist_dev_l
      0.00000000	     -0.02214737	    -18.93889444	    107.72892811	      0.17769922	      0.32950175	      0.64334866	      8.41483163	     -4.89723706	    -11.87759912	     14.79959689	      0.25830169	     29.94122733	      4.29177666	      0.00000000	      4.69392855	      4.36621956	      0.04256000	      2.83873259	      0.04954523	     21.97303738	      3.06861758	      0.00000000	      0.41018568	     -0.11857111	     -0.41742531	      0.76175583	     -0.15769957	     -0.44351439	      0.67389406	     -0.28829379	     -0.44351439	      0.46880122	     -0.28829379	     -0.36524714	      0.38089843	     -0.24179020	     -0.33915806	      0.23438010	     -0.18366664	     -0.31306898	      2.92991532	     -1.34130007	     -2.32159433	      0.00000000	      0.00000000	     28.10003548	     -0.57072927	      4.17927789	     15.70449388	      8.26647628	    176.61204458	      4.71601213	      3.21104781	    -11.84237672	     -5.67486323	     15.55631134	      2.57058475	     84.49136360	     23.12485296	     16.16281232	     -2.29926137	     -2.23854798
      0.01724138	      0.36377969	    -18.74658653	    107.92129462	      0.17726825	      0.32937316	      0.64266816	      8.10488783	     -4.37335035	    -11.44968707	     14.48284289	      0.25277329	     29.90827232	      3.28868119	      0.00000000	      4.45709582	      4.00311984	     -0.30504453	      2.40210379	      0.04192462	     23.07377227	      2.97218690	      0.00000000	      0.42686486	     -0.04823727	     -0.44684846	      0.79273073	     -0.06415556	     -0.47477649	      0.70129628	     -0.11728409	     -0.47477649	      0.48786385	     -0.11728409	     -0.39099240	      0.39638671	     -0.09836543	     -0.36306437	      0.24391058	     -0.07471953	     -0.33513634	      3.04905302	     -0.54566961	     -2.48523707	      0.00000000	      0.00000000	     28.15899693	     -0.62971327	      5.99283719	     16.13428227	      8.08871426	    174.79457180	      5.96433246	      3.51952287	    -11.95891037	     -6.02686875	     15.30350551	      2.90823407	     83.46824167	     22.92573707	     17.92354342	     -2.97911921	     -2.38369157
      0.03448276	      0.81804038	    -18.58831404	    108.04843743	      0.17686671	      0.32913168	      0.64231586	      7.84397873	     -3.81135871	    -11.04341671	     14.06181607	      0.24542499	     29.74269414	      2.67323475	      0.00000000	      4.31177907	      3.67135646	      3.20727730	      2.00665860	      0.03502280	     23.02744017	     -2.37405083	      0.00000000	      0.44768902	      0.02866594	     -0.44744856	      0.83140328	      0.03812570	     -0.47541409	      0.73550829	      0.06969836	     -0.47541409	      0.51166378	      0.06969836	     -0.39151749	      0.41572402	      0.05845558	     -0.36355195	      0.25580951	      0.04440354	     -0.33558642	      3.19779789	      0.32427482	     -2.48857464	      0.00000000	      0.00000000	     28.18378444	     -0.48130151	      7.62372705	     17.01814023	      4.99833391	    137.37418327	     13.26187809	      5.40558878	     -7.45386807	     -6.89600240	     15.78054251	      3.34113714	     87.00576610	     22.53462977	     14.05812162	     -2.74438651	     -3.43895927
      0.05172414	      1.04422040	    -18.55246077	    108.00609742	      0.17687751	      0.32885326	      0.64193104	      7.67319621	     -3.48201503	    -10.48236361	     13.63566206	      0.23798720	     29.52693034	      2.16945608	      0.00000000	      4.28970368	      3.46822474	      3.31521396	      1.76704961	      0.03084083	     23.47472771	     -2.66498837	      0.00000000	      0.47101127	      0.05894651	     -0.41940649	      0.87471503	      0.07839885	     -0.44561940	      0.77382441	      0.14332254	     -0.44561940	      0.53831878	      0.14332254	     -0.36698068	      0.43738106	      0.12020372	     -0.34076777	      0.26913584	      0.09130814	     -0.31455487	      3.36438640	      0.66681467	     -2.33261309	      0.00000000	      0.00000000	     28.21062505	     -0.33261082	      7.99153062	     16.78077755	      3.90594928	    128.46810141	     14.99712390	      5.51462718	     -6.26678901	     -6.00976582	     15.66114530	      3.44527558	     86.63874676	     22.52184189	     14.57646817	     -2.87852800	     -3.42277173
      0.06896552	      1.18505832	    -18.53168610	    108.18212678	      0.17666179	      0.32864502	      0.64181001	      7.43163028	     -3.39849098	    -11.23342767	     13.18809419	      0.23017567	     29.54325070	      3.28536410	      0.00000000	      4.29267836	      3.36642694	      4.45482541	      1.58080582	      0.02759027	     23.46414388	     -3.83573660	      0.00000000	      0.48909503	      0.07140666	     -0.42090992	      0.90829837	      0.09497085	     -0.44721679	      0.80353422	      0.17361815	     -0.44721679	      0.55898670	      0.17361815	     -0.36829618	      0.45417364	      0.14561246	     -0.34198931	      0.27946890	      0.11060891	     -0.31568244	      3.49355686	      0.80776639	     -2.34097470	      0.00000000	      0.00000000	     28.22675039	     -0.25637145	      7.62922163	     16.37864502	      3.10321040	    121.44641702	     16.15431885	      5.39277935	     -5.35739164	     -4.92634130	     15.80506687	      3.56091041	     87.83074862	     22.35571685	     13.61552680	     -2.68891708	     -3.68289033
      0.08620690	      1.17769375	    -18.58532507	    108.11140691	      0.17694875	      0.32837989	      0.64183010	      7.32837894	     -3.40479223	    -11.29113276	     12.83440014	      0.22400254	     29.47226457	      3.77467902	      0.00000000	      4.38488983	      3.36674974	      3.66070815	      1.52293059	      0.02658015	     23.79743473	     -2.40829145	      0.00000000	      0.50516869	      0.06250515	     -0.40494413	      0.93814878	      0.08313185	     -0.43025314	      0.82994165	      0.15197503	     -0.43025314	      0.57735730	      0.15197503	     -0.35432612	      0.46909965	      0.12746051	     -0.32901711	      0.28865339	      0.09682048	     -0.30370810	      3.60836947	      0.70707079	     -2.25217778	      0.00000000	      0.00000000	     28.23786810	     -0.07139614	      7.16790855	     16.14970715	      2.81784904	    118.21997787	     16.62338244	      4.76315434	     -4.75774210	     -4.32161532	     15.69628131	      3.44287030	     87.32660435	     22.50791794	     13.74831508	     -2.65253953	     -3.52826040
      0.10344828	      1.10080435	    -18.62914155	    107.86525368	      0.17744311	      0.32803705	      0.64190329	      7.22289669	     -3.44406207	    -11.07808042	     12.47301311	      0.21769515	     29.41626032	      4.22614750	      0.00000000	      4.40014313	      3.42002256	      3.07852865	      1.42895251	      0.02493993	     23.98178235	     -1.44073945	      0.00000000	      0.51322242	      0.04864941	     -0.37277182	      0.95310536	      0.06470372	     -0.39607005	      0.84317312	      0.11828618	     -0.39607005	      0.58656191	      0.11828618	     -0.32617534	      0.47657834	      0.09920588	     -0.30287710	      0.29325529	      0.07535794	     -0.27957886	      3.66589644	      0.55033189	     -2.07324500	      0.00000000	      0.00000000	     28.24556811	      0.01735168	      6.65564709	     16.03249968	      2.81710206	    117.15112714	     16.59624885	      5.48493747	     -4.71840337	     -4.26992267	     15.53575174	      3.27162387	     86.51538552	     22.67847955	     14.45750168	     -2.55638467	     -3.45978088
      0.12068966	      0.91243305	    -18.71486728	    107.75033596	      0.17780970	      0.32760863	      0.64228134	      7.16467346	     -3.68617119	    -11.37903934	     12.28424047	      0.21440044	     29.51237207	      5.00140557	      0.00000000	      4.47844206	      3.62011315	      3.61811505	      1.43295602	      0.02500980	     23.94965157	     -1.89234378	      0.00000000	      0.51847225	      0.01410494	     -0.34573020	      0.96285481	      0.01875957	     -0.36733833	      0.85179806	      0.03429476	     -0.36733833	      0.59256193	      0.03429476	     -0.30251392	      0.48145333	      0.02876280	     -0.28090578	      0.29625504	      0.02184856	     -0.25929765	      3.70339543	      0.15955793	     -1.92284763	      0.00000000	      0.00000000	     28.24771329	     -0.23215284	      5.23158550	     15.80641025	      2.96896727	    116.05044479	     16.36212590	      4.88411823	     -4.34244136	     -3.90479922	     15.59882734	      3.15697720	     86.75117393	     22.74076059	     14.07171203	     -2.47714929	     -3.06820878
      0.13793103	      0.88514767	    -18.73558763	    107.60332227	      0.17800814	      0.32718233	      0.64301612	      7.18324943	     -3.74431684	    -11.36236226	     12.23608311	      0.21355994	     29.54771652	      5.01858705	      0.00000000	      4.53705993	      3.65338917	      3.68314160	      1.41902811	      0.02476671	     24.01893806	     -1.87931575	      0.00000000	      0.51371042	      0.01607172	     -0.35834503	      0.95401162	      0.02137539	     -0.38074159	      0.84397485	      0.03907678	     -0.38074159	      0.58711964	      0.03907678	     -0.31355190	      0.47703150	      0.03277345	     -0.29115533	      0.29353413	      0.02489509	     -0.26875877	      3.66938216	      0.18180649	     -1.99300754	      0.00000000	      0.00000000	     28.24553100	     -0.23122691	      5.19583111	     15.81420147	      2.99481231	    116.05042393	     16.30264739	      4.90932691	     -4.36096973	     -3.92652526	     15.60292052	      3.16871118	     86.76252279	     22.75210987	     14.06914985	     -2.48067569	     -3.06737773
      0.15517241	      0.46744176	    -18.86622427	    107.36217087	      0.17865523	      0.32661943	      0.64332323	      7.05849129	     -4.23217768	    -11.78824199	     12.01176693	      0.20964488	     29.92187099	      5.91903744	      0.00000000	      4.53064987	      4.08996962	      5.52688817	      1.38836931	      0.02423162	     23.54625191	     -4.53329352	      0.00000000	      0.51758066	     -0.04923532	     -0.32558462	      0.96119904	     -0.06548297	     -0.34593366	      0.85033326	     -0.11971075	     -0.34593366	      0.59154293	     -0.11971075	     -0.28488654	      0.48062540	     -0.10040066	     -0.26453750	      0.29574559	     -0.07626551	     -0.24418846	      3.69702688	     -0.55695977	     -1.81080398	      0.00000000	      0.00000000	     28.25537006	     -0.61119617	      3.47428939	     16.21503400	      4.34414854	    125.84667334	     14.24480751	      5.84676441	     -5.51696384	     -5.39704774	     15.76143612	      2.99489488	     87.95301978	     22.79763345	     13.22682447	     -2.67816875	     -3.34639585
      0.17241379	      0.21821064	    -19.01382065	    107.02548229	      0.17929521	      0.32593010	      0.64360794	      7.10162602	     -4.47318722	    -11.31315264	     11.92027398	      0.20804803	     30.11730769	      5.45709420	      0.00000000	      4.60917636	      4.33668033	      5.49332193	      1.43561339	      0.02505618	     23.55521405	     -4.80222955	      0.00000000	      0.53406188	     -0.09010072	     -0.25983321	      0.99180632	     -0.11983395	     -0.27607279	      0.87741026	     -0.21907088	     -0.27607279	      0.61037932	     -0.21907088	     -0.22735406	      0.49592986	     -0.18373338	     -0.21111449	      0.30516296	     -0.13956601	     -0.19487491	      3.81475060	     -1.01923733	     -1.44511438	      0.00000000	      0.00000000	     28.27625118	     -1.01050172	      2.12349237	     16.23214984	      5.17023645	    131.77685316	     12.86401012	      7.60363591	     -6.62103225	     -5.88116255	     15.81755545	      2.98571272	     88.60500566	     22.72286304	     13.98901751	     -3.13222759	     -3.61778637
